<svg width="24" height="24" viewBox="0 0 24 24" fill="none" xmlns="http://www.w3.org/2000/svg">
<g clip-path="url(#clip0_8794_120756)">
<path d="M24 12C24 18.6274 18.6274 24 12 24C5.37258 24 0 18.6274 0 12C0 5.37258 5.37258 0 12 0C18.6274 0 24 5.37258 24 12Z" fill="#F4F4F4"/>
<path d="M12 0C9.62663 0 7.30655 0.703788 5.33316 2.02236C3.35977 3.34094 1.8217 5.21508 0.913451 7.4078C0.00519943 9.60051 -0.232441 12.0133 0.230582 14.3411C0.693605 16.6689 1.83649 18.807 3.51472 20.4853C5.19295 22.1635 7.33115 23.3064 9.65892 23.7694C11.9867 24.2324 14.3995 23.9948 16.5922 23.0866C18.7849 22.1783 20.6591 20.6402 21.9776 18.6668C23.2962 16.6935 24 14.3734 24 12C23.9966 8.81846 22.7312 5.76821 20.4815 3.51852C18.2318 1.26883 15.1815 0.00344108 12 0ZM16.242 14.829C16.4295 15.0165 16.5348 15.2708 16.5348 15.536C16.5348 15.8012 16.4295 16.0555 16.242 16.243C16.0513 16.4243 15.7982 16.5255 15.535 16.5255C15.2718 16.5255 15.0187 16.4243 14.828 16.243L12 13.414L9.172 16.243C8.98321 16.4281 8.72937 16.5317 8.465 16.5317C8.20063 16.5317 7.9468 16.4281 7.758 16.243C7.57053 16.0555 7.46522 15.8012 7.46522 15.536C7.46522 15.2708 7.57053 15.0165 7.758 14.829L10.586 12L7.758 9.171C7.66249 9.07875 7.58631 8.96841 7.5339 8.8464C7.48149 8.7244 7.45391 8.59318 7.45275 8.4604C7.4516 8.32762 7.4769 8.19594 7.52718 8.07304C7.57746 7.95015 7.65172 7.8385 7.74561 7.7446C7.8395 7.65071 7.95115 7.57646 8.07405 7.52618C8.19695 7.4759 8.32863 7.45059 8.4614 7.45175C8.59418 7.4529 8.7254 7.48049 8.84741 7.5329C8.96941 7.58531 9.07976 7.66149 9.172 7.757L12 10.586L14.828 7.757C14.9202 7.66149 15.0306 7.58531 15.1526 7.5329C15.2746 7.48049 15.4058 7.4529 15.5386 7.45175C15.6714 7.45059 15.8031 7.4759 15.926 7.52618C16.0489 7.57646 16.1605 7.65071 16.2544 7.7446C16.3483 7.8385 16.4225 7.95015 16.4728 8.07304C16.5231 8.19594 16.5484 8.32762 16.5473 8.4604C16.5461 8.59318 16.5185 8.7244 16.4661 8.8464C16.4137 8.96841 16.3375 9.07875 16.242 9.171L13.414 12L16.242 14.829Z" fill="#FF3E3E"/>
</g>
<defs>
<clipPath id="clip0_8794_120756">
<rect width="24" height="24" fill="white" transform="matrix(-1 0 0 -1 24 24)"/>
</clipPath>
</defs>
</svg>
