<svg width="24" height="24" viewBox="0 0 24 24" fill="none" xmlns="http://www.w3.org/2000/svg">
<path d="M4 14L4 17C4 18.1046 4.89543 19 6 19L18 19C19.1046 19 20 18.1046 20 17L20 14" stroke="#F4F4F4" stroke-width="1.2" stroke-linecap="round"/>
<path d="M11.41 15C11.41 15.3314 11.6786 15.6 12.01 15.6C12.3414 15.6 12.61 15.3314 12.61 15L12.01 15L11.41 15ZM12.4343 3.57574C12.2 3.34142 11.8201 3.34142 11.5858 3.57574L7.76737 7.39411C7.53306 7.62843 7.53306 8.00833 7.76737 8.24264C8.00169 8.47696 8.38159 8.47696 8.6159 8.24264L12.01 4.84853L15.4041 8.24264C15.6384 8.47696 16.0183 8.47696 16.2527 8.24264C16.487 8.00833 16.487 7.62843 16.2527 7.39411L12.4343 3.57574ZM12.01 15L12.61 15L12.61 4L12.01 4L11.41 4L11.41 15L12.01 15Z" fill="#F4F4F4"/>
</svg>
