<svg width="24" height="24" viewBox="0 0 24 24" fill="none" xmlns="http://www.w3.org/2000/svg">
<path d="M12 17.291C9.55163 17.291 7.36613 16.0867 5.77832 14.8662C4.189 13.6445 3.18627 12.3976 3.10352 12.293L2.92188 12.0625L2.87305 12.001L2.92188 11.9385L3.10352 11.709C3.18627 11.6044 4.189 10.3574 5.77832 9.13574C7.36613 7.91524 9.55161 6.71097 12 6.71094C14.4485 6.71094 16.6348 7.9152 18.2227 9.13574C19.8118 10.3573 20.8137 11.6044 20.8965 11.709L21.0781 11.9385L21.1279 12.001L21.0781 12.0625L20.8965 12.293C20.8137 12.3976 19.8118 13.6446 18.2227 14.8662C16.6348 16.0868 14.4485 17.291 12 17.291ZM12 16.3496C13.9188 16.3496 15.7036 15.4859 17.1162 14.4971C18.4647 13.5531 19.4648 12.501 19.9072 12.001C19.4641 11.5013 18.4633 10.4489 17.1143 9.50488C15.701 8.51588 13.9161 7.65234 12 7.65234C10.0811 7.65237 8.29643 8.51603 6.88379 9.50488C5.53602 10.4483 4.53757 11.5007 4.09473 12.001C4.53824 12.501 5.53849 13.5536 6.88672 14.4971C8.29988 15.4859 10.0841 16.3496 12 16.3496Z" fill="#F4F4F4" stroke="#F4F4F4" stroke-width="0.2"/>
<path d="M12 15.4355C10.1048 15.4354 8.56348 13.8938 8.56348 11.999C8.56358 10.1043 10.1049 8.5626 12 8.5625C13.8952 8.5625 15.4364 10.1042 15.4365 11.999C15.4365 13.8939 13.8953 15.4355 12 15.4355ZM12 14.4941C13.3755 14.4941 14.4951 13.3749 14.4951 11.999C14.495 10.6233 13.3754 9.50391 12 9.50391C10.6247 9.50401 9.50498 10.6233 9.50488 11.999C9.50488 13.3748 10.6246 14.494 12 14.4941Z" fill="#F4F4F4" stroke="#F4F4F4" stroke-width="0.2"/>
</svg>
