<svg width="36" height="36" viewBox="0 0 36 36" fill="none" xmlns="http://www.w3.org/2000/svg">
<path d="M24 24L18 18L12 24" stroke="#F4F4F4" stroke-width="1.50974" stroke-linecap="round" stroke-linejoin="round"/>
<path d="M18 18V31.5" stroke="#F4F4F4" stroke-width="1.50974" stroke-linecap="round" stroke-linejoin="round"/>
<path d="M30.5849 27.5852C32.0479 26.7876 33.2037 25.5255 33.8697 23.9982C34.5358 22.4708 34.6743 20.7651 34.2632 19.1503C33.8522 17.5354 32.9152 16.1035 31.5999 15.0804C30.2847 14.0573 28.6662 13.5013 26.9999 13.5002H25.1099C24.6559 11.7441 23.8097 10.1137 22.6349 8.73171C21.46 7.3497 19.9872 6.252 18.3271 5.52113C16.667 4.79027 14.8628 4.44526 13.0501 4.51204C11.2375 4.57883 9.46354 5.05567 7.8617 5.90672C6.25987 6.75777 4.87181 7.96087 3.80187 9.42559C2.73194 10.8903 2.00798 12.5785 1.68441 14.3633C1.36084 16.1481 1.4461 17.983 1.93376 19.7301C2.42142 21.4772 3.2988 23.091 4.49994 24.4502" stroke="#F4F4F4" stroke-width="1.50974" stroke-linecap="round" stroke-linejoin="round"/>
<path d="M24 24L18 18L12 24" stroke="#F4F4F4" stroke-width="1.50974" stroke-linecap="round" stroke-linejoin="round"/>
</svg>
