<svg width="24" height="24" viewBox="0 0 24 24" fill="none" xmlns="http://www.w3.org/2000/svg">
<path d="M4 14L4 17C4 18.1046 4.89543 19 6 19L18 19C19.1046 19 20 18.1046 20 17L20 14" stroke="#F4F4F4" stroke-width="1.2" stroke-linecap="round"/>
<path d="M12.6 4C12.6 3.66863 12.3314 3.4 12 3.4C11.6686 3.4 11.4 3.66863 11.4 4L12 4L12.6 4ZM11.5757 15.4243C11.8101 15.6586 12.19 15.6586 12.4243 15.4243L16.2426 11.6059C16.477 11.3716 16.477 10.9917 16.2426 10.7574C16.0083 10.523 15.6284 10.523 15.3941 10.7574L12 14.1515L8.60589 10.7574C8.37158 10.523 7.99168 10.523 7.75736 10.7574C7.52305 10.9917 7.52305 11.3716 7.75736 11.6059L11.5757 15.4243ZM12 4L11.4 4L11.4 15L12 15L12.6 15L12.6 4L12 4Z" fill="#F4F4F4"/>
</svg>
