<svg width="24" height="25" viewBox="0 0 24 25" fill="none" xmlns="http://www.w3.org/2000/svg">
<g id="Icons">
<rect id="Rectangle 39609" x="2" y="2.5" width="20" height="20" rx="4" fill="#B9EEFE"/>
<g id="Group">
<path id="Vector" d="M10.6181 7.21447C10.6181 6.46428 11.2251 5.99987 12.0278 5.99987C12.8116 5.99987 13.4381 6.48214 13.4381 7.21447V14.093C13.4381 14.8253 12.8116 15.3076 12.0278 15.3076C11.2251 15.3076 10.6181 14.8426 10.6181 14.093V7.21447ZM10.5 17.7546C10.5007 17.3852 10.6619 17.0311 10.9483 16.77C11.2346 16.5088 11.6229 16.3619 12.0278 16.3614C12.4327 16.3619 12.8209 16.5088 13.1073 16.77C13.3937 17.0311 13.5549 17.3852 13.5556 17.7546C13.5551 18.1242 13.394 18.4784 13.1075 18.7397C12.8211 19.001 12.4328 19.148 12.0278 19.1484C11.6227 19.148 11.2344 19.001 10.948 18.7397C10.6616 18.4784 10.5005 18.1242 10.5 17.7546Z" fill="#231F20"/>
</g>
</g>
</svg>
