<svg width="24" height="24" viewBox="0 0 24 24" fill="none" xmlns="http://www.w3.org/2000/svg">
<circle cx="12" cy="12" r="12" fill="#5F58FF"/>
<path d="M17.2879 8.17694H14.1298C14.0781 8.17706 14.0282 8.19654 13.9892 8.2318L12.4294 9.65531C12.4056 9.60311 12.3809 9.55091 12.3527 9.50048C12.1035 9.03935 11.7349 8.65993 11.2887 8.4052C10.8278 8.13713 10.2681 8 9.62405 8H9.59764C8.95359 8 8.39303 8.13713 7.93384 8.4052C7.48649 8.66026 7.11742 9.04109 6.86895 9.50402C6.62362 9.96413 6.49657 10.4821 6.50007 11.008V16.25H7.94833V11.008C7.94579 10.7847 7.98643 10.5631 8.06785 10.3563C8.14927 10.1496 8.26981 9.96193 8.42233 9.80444C8.57485 9.64696 8.75625 9.52286 8.9558 9.43949C9.15534 9.35613 9.36896 9.31519 9.58401 9.31912H9.63683C9.92302 9.314 10.2053 9.3885 10.4544 9.53489C10.7036 9.68128 10.9104 9.89422 11.0536 10.1516C11.199 10.4116 11.274 10.7075 11.2708 11.008V16.25H12.7191V11.3451L15.5559 8.75732C15.5942 8.7225 15.6413 8.69986 15.6916 8.69208C15.7419 8.6843 15.7933 8.69172 15.8396 8.71346C15.886 8.73519 15.9253 8.77033 15.953 8.81466C15.9806 8.85898 15.9954 8.91064 15.9955 8.96346V16.2456H17.5V8.39724C17.4998 8.33888 17.4773 8.28299 17.4376 8.24172C17.3979 8.20046 17.3441 8.17718 17.2879 8.17694Z" fill="white"/>
</svg>
