<svg width="512" height="512" viewBox="0 0 512 512" fill="none" xmlns="http://www.w3.org/2000/svg">
<rect width="512" height="512" fill="#010101"/>
<path d="M394.14 122.962H311.62C310.269 122.973 308.966 123.472 307.952 124.366L267.625 159.747C266.85 158.133 266.074 156.519 265.173 154.947C258.672 143.349 249.041 133.813 237.38 127.426C225.37 120.677 210.74 117.219 193.888 117.219H193.154C176.386 117.219 161.714 120.614 149.662 127.426C138.012 133.828 128.385 143.361 121.869 154.947C115.448 166.582 112.141 179.679 112.269 192.968V325.834H150.165V192.968C150.1 187.347 151.162 181.769 153.287 176.564C155.412 171.359 158.558 166.632 162.539 162.663C166.521 158.693 171.257 155.561 176.468 153.451C181.679 151.341 187.26 150.296 192.882 150.378H194.265C199.885 150.302 205.463 151.351 210.672 153.463C215.881 155.575 220.614 158.707 224.594 162.676C228.574 166.644 231.721 171.368 233.848 176.571C235.975 181.773 237.041 187.348 236.982 192.968V325.834H274.898V202.694L348.929 137.592C349.928 136.713 351.16 136.14 352.476 135.944C353.793 135.747 355.138 135.934 356.35 136.483C357.563 137.032 358.591 137.919 359.312 139.037C360.033 140.156 360.416 141.459 360.415 142.79V325.96H399.715V128.537C399.721 127.811 399.582 127.09 399.308 126.418C399.033 125.745 398.627 125.134 398.115 124.62C397.602 124.105 396.992 123.697 396.321 123.42C395.649 123.142 394.929 123.001 394.203 123.004L394.14 122.962Z" fill="#0BC3CF"/>
<path d="M114.109 353.155H127.262C131.449 353.155 135.106 354.04 138.291 355.75C141.417 357.52 143.835 359.938 145.545 363.005C147.197 366.13 148.081 369.728 148.081 373.798C148.081 377.867 147.197 381.465 145.545 384.591C143.835 387.717 141.417 390.135 138.291 391.845C135.106 393.615 131.449 394.441 127.262 394.441H114.109V353.155ZM127.262 388.543C131.685 388.543 135.106 387.245 137.524 384.591C139.883 381.937 141.122 378.339 141.122 373.798C141.122 369.315 139.883 365.718 137.524 363.064C135.106 360.409 131.685 359.053 127.262 359.053H120.892V388.543H127.262Z" fill="#0BC3CF"/>
<path d="M146.197 353.096H154.159L165.011 372.028L176.158 353.096H183.767L168.373 379.165V394.441H161.59V379.165L146.197 353.096Z" fill="#0BC3CF"/>
<path d="M186.684 394.441V353.155H192.877L212.989 382.409V353.155H219.653V394.441H213.46L193.348 365.187V394.441H186.684Z" fill="#0BC3CF"/>
<path d="M222.692 394.441L238.145 353.155H246.225L261.618 394.441H254.364L250.471 384.237H233.544L229.711 394.441H222.692ZM235.432 378.457H248.584L241.978 360.468L235.432 378.457Z" fill="#0BC3CF"/>
<path d="M264.672 353.155H273.46L286.672 385.653L299.647 353.155H308.258V394.441H301.711V364.066L289.326 394.441H283.605L271.219 364.066V394.441H264.672V353.155Z" fill="#0BC3CF"/>
<path d="M314.639 353.155H321.421V394.441H314.639V353.155Z" fill="#0BC3CF"/>
<path d="M328.627 362.828C330.278 359.643 332.578 357.225 335.586 355.455C338.594 353.686 342.133 352.801 346.143 352.801C349.21 352.801 352.041 353.391 354.519 354.571C356.996 355.75 359.06 357.461 360.652 359.643C362.186 361.825 363.188 364.361 363.66 367.192H356.878C356.17 364.597 354.872 362.533 352.985 360.999C351.039 359.525 348.68 358.758 345.849 358.758C343.253 358.758 341.012 359.407 339.125 360.704C337.179 362.002 335.704 363.771 334.701 366.013C333.64 368.254 333.168 370.849 333.168 373.798C333.168 376.747 333.64 379.342 334.701 381.583C335.704 383.883 337.179 385.653 339.125 386.95C341.012 388.248 343.253 388.837 345.849 388.837C348.68 388.837 351.039 388.13 352.926 386.596C354.813 385.122 356.111 383.058 356.819 380.403H363.601C363.129 383.352 362.127 385.889 360.593 388.012C359.06 390.194 357.055 391.845 354.577 393.025C352.1 394.205 349.269 394.794 346.143 394.794C342.133 394.794 338.594 393.969 335.586 392.199C332.578 390.489 330.278 388.071 328.627 384.886C326.975 381.701 326.208 378.044 326.208 373.798C326.208 369.669 326.975 366.013 328.627 362.828Z" fill="#0BC3CF"/>
<path d="M373.395 380.993C373.572 383.47 374.575 385.417 376.344 386.891C378.113 388.366 380.473 389.073 383.363 389.073C385.84 389.073 387.904 388.543 389.437 387.481C390.971 386.419 391.797 384.886 391.797 382.94C391.797 381.583 391.325 380.521 390.499 379.696C389.673 378.87 388.494 378.28 387.078 377.808C385.604 377.396 383.54 376.924 380.944 376.452C378.231 375.98 375.931 375.39 374.044 374.623C372.157 373.857 370.564 372.677 369.385 371.085C368.205 369.551 367.615 367.487 367.615 364.892C367.615 362.533 368.205 360.468 369.444 358.581C370.682 356.753 372.392 355.337 374.634 354.276C376.875 353.273 379.411 352.742 382.301 352.742C385.25 352.742 387.845 353.332 390.204 354.394C392.504 355.514 394.333 357.048 395.689 358.935C396.987 360.881 397.754 363.064 397.871 365.541H391.207C390.971 363.417 390.027 361.707 388.435 360.409C386.783 359.112 384.778 358.463 382.301 358.463C379.883 358.463 377.936 358.994 376.521 360.056C375.105 361.117 374.398 362.533 374.398 364.42C374.398 365.777 374.811 366.838 375.636 367.605C376.462 368.431 377.642 369.02 379.057 369.374C380.473 369.787 382.478 370.2 385.132 370.672C387.786 371.144 390.086 371.792 392.033 372.559C393.92 373.385 395.512 374.506 396.751 376.039C397.93 377.572 398.579 379.637 398.579 382.114C398.579 384.591 397.93 386.773 396.633 388.661C395.335 390.607 393.507 392.14 391.207 393.202C388.848 394.264 386.253 394.794 383.304 394.794C380.001 394.794 377.17 394.205 374.693 393.025C372.216 391.845 370.269 390.253 368.854 388.13C367.438 386.006 366.73 383.588 366.73 380.875L373.395 380.993Z" fill="#0BC3CF"/>
</svg>
