<svg width="200" height="200" viewBox="0 0 200 200" fill="none" xmlns="http://www.w3.org/2000/svg">
<path d="M50.5737 161.951H160.846V52.6507H50.5737V162V161.951Z" fill="#131B23"/>
<path d="M32.8691 35V70.3024H50.5738V52.6512H68.2785V35H32.8691Z" fill="#131B23"/>
<path d="M68.2784 52.6507H50.5737V70.3019H68.2784V52.6507Z" fill="white"/>
<path d="M119.962 115.045C119.617 118.044 118.581 120.552 116.855 122.469C114.685 124.977 111.48 126.206 107.337 126.206C103.194 126.206 99.9396 124.977 97.7203 122.469C95.5011 120.011 94.3668 116.668 94.3668 112.439C94.3668 110.964 94.564 109.637 94.8106 108.407L92.9366 107.867L92.2955 107.719C92.2955 107.719 92.1968 107.719 92.1475 107.719H84.0103C83.2705 110.227 82.8267 112.882 82.8267 115.832C82.8267 120.994 83.9116 125.469 86.1309 129.304C88.3501 133.139 91.4571 136.089 95.4517 138.154C99.4957 140.268 104.181 141.301 109.556 141.301C114.932 141.301 119.716 140.268 123.661 138.203C127.606 136.138 130.713 133.188 132.883 129.353C134.363 126.796 135.201 123.846 135.694 120.65C135.744 120.208 135.891 119.814 135.941 119.323L119.864 115.045H119.962Z" fill="white"/>
<path d="M134.511 98.7707L92.5426 78.8086C92.5426 78.8086 92.296 78.7103 92.1481 78.7103H75.3311V95.7223H92.2467C92.2467 95.7223 92.444 95.7223 92.5426 95.7223L136.287 108.752C136.287 108.752 135.695 101.721 134.61 98.7215L134.511 98.7707Z" fill="white"/>
</svg>
