<svg width="24" height="24" viewBox="0 0 24 24" fill="none" xmlns="http://www.w3.org/2000/svg">
<path d="M11.9971 2.90039C13.2541 2.9004 14.4379 3.13861 15.5469 3.61621C16.6532 4.09366 17.6166 4.74229 18.4365 5.56152C19.2565 6.38012 19.9054 7.34251 20.3828 8.44824C20.8611 9.55597 21.0996 10.7394 21.0996 11.9971C21.0996 13.2541 20.8614 14.4379 20.3838 15.5469C19.9063 16.6532 19.2577 17.6166 18.4385 18.4365C17.6199 19.2565 16.6575 19.9054 15.5518 20.3828C14.444 20.8611 13.2606 21.0996 12.0029 21.0996C10.7459 21.0996 9.56213 20.8614 8.45312 20.3838C7.34678 19.9063 6.38338 19.2577 5.56348 18.4385C4.74355 17.6199 4.09464 16.6575 3.61719 15.5518C3.13888 14.444 2.90039 13.2606 2.90039 12.0029C2.9004 10.7459 3.13861 9.56213 3.61621 8.45312C4.09366 7.34678 4.74229 6.38338 5.56152 5.56348C6.38012 4.74355 7.34251 4.09464 8.44824 3.61719C9.55597 3.13888 10.7394 2.90039 11.9971 2.90039ZM12 4.09961C9.79263 4.09961 7.92636 4.86465 6.39551 6.39551C4.86465 7.92636 4.09961 9.79263 4.09961 12C4.09961 14.2074 4.86465 16.0736 6.39551 17.6045C7.92636 19.1353 9.79263 19.9004 12 19.9004C14.2074 19.9004 16.0736 19.1353 17.6045 17.6045C19.1353 16.0736 19.9004 14.2074 19.9004 12C19.9004 9.79263 19.1353 7.92636 17.6045 6.39551C16.0736 4.86465 14.2074 4.09961 12 4.09961Z" fill="#F4F4F4" stroke="#F4F4F4" stroke-width="0.2"/>
<path d="M12 11V17" stroke="#F4F4F4" stroke-width="1.5" stroke-linecap="round"/>
<circle cx="12" cy="8" r="1" fill="#F4F4F4"/>
</svg>
