<svg width="16" height="17" viewBox="0 0 16 17" fill="none" xmlns="http://www.w3.org/2000/svg">
<path d="M9.18523 1.83301H6.81526C6.48939 1.83301 6.22277 2.10444 6.22277 2.43618C6.22277 2.76793 6.48939 3.03936 6.81526 3.03936H9.18523C9.5111 3.03936 9.77772 2.76793 9.77772 2.43618C9.77772 2.10444 9.5111 1.83301 9.18523 1.83301ZM8.00025 9.67428C8.32612 9.67428 8.59274 9.40285 8.59274 9.0711V6.6584C8.59274 6.32666 8.32612 6.05523 8.00025 6.05523C7.67438 6.05523 7.40775 6.32666 7.40775 6.6584V9.0711C7.40775 9.40285 7.67438 9.67428 8.00025 9.67428ZM12.1655 5.68729L12.6098 5.23491C12.835 5.00571 12.8409 4.62571 12.6098 4.39047L12.6039 4.38444C12.3728 4.1492 12.0055 4.15523 11.7744 4.38444L11.3301 4.83682C10.4117 4.08888 9.25633 3.64253 8.00025 3.64253C5.15628 3.64253 2.73891 6.0311 2.66781 8.92634C2.59079 11.9905 5.00223 14.4997 8.00025 14.4997C10.9509 14.4997 13.3327 12.0689 13.3327 9.0711C13.3327 7.79237 12.8942 6.61618 12.1655 5.68729ZM8.00025 13.2933C5.7073 13.2933 3.8528 11.4054 3.8528 9.0711C3.8528 6.73682 5.7073 4.84888 8.00025 4.84888C10.2932 4.84888 12.1477 6.73682 12.1477 9.0711C12.1477 11.4054 10.2932 13.2933 8.00025 13.2933Z" fill="white"/>
</svg>
