<svg width="24" height="24" viewBox="0 0 24 24" fill="none" xmlns="http://www.w3.org/2000/svg">
<path d="M5.53846 18C5.83569 18 6.07692 17.7593 6.07692 17.4615C6.07692 14.1958 8.73423 11.5385 12 11.5385C15.2658 11.5385 17.9231 14.1958 17.9231 17.4615C17.9231 17.7593 18.1638 18 18.4615 18C18.7593 18 19 17.7593 19 17.4615C19 14.3718 16.9851 11.7479 14.2023 10.8218C15.1495 10.1363 15.7692 9.02546 15.7692 7.76923C15.7692 5.69077 14.0779 4 12 4C9.92154 4 8.23077 5.69077 8.23077 7.76923C8.23077 9.02546 8.85054 10.1363 9.79769 10.8218C7.01492 11.7479 5 14.3718 5 17.4615C5 17.7593 5.24123 18 5.53846 18ZM9.30769 7.76923C9.30769 6.28469 10.5155 5.07692 12 5.07692C13.4845 5.07692 14.6923 6.28469 14.6923 7.76923C14.6923 9.25377 13.4845 10.4615 12 10.4615C10.5155 10.4615 9.30769 9.25377 9.30769 7.76923Z" fill="#F4F4F4"/>
<path d="M16.5 12.5L14.5 14.5V17.5L16.5 19.5H19.5L21.5 17.5V14.5L19.5 12.5H16.5Z" fill="#202020"/>
<path d="M16.8066 11.959C16.8982 11.936 17.0082 11.9571 17.0723 12.0449L17.1768 12.168C17.3916 12.3831 17.691 12.5049 18 12.5049C18.3085 12.5049 18.5988 12.3834 18.8242 12.167C18.851 12.14 18.8882 12.0945 18.9277 12.0449V12.0439C18.989 11.9703 19.0969 11.9348 19.1934 11.959H19.1943C19.41 12.0186 19.6198 12.1007 19.8193 12.1963L20.0156 12.2959L20.0166 12.2969C20.1022 12.3461 20.1509 12.4439 20.1387 12.542V12.5439C20.1297 12.5979 20.1289 12.6528 20.1289 12.7021C20.1291 13.3395 20.6538 13.8652 21.2998 13.8652C21.3482 13.8652 21.3944 13.8647 21.459 13.8555C21.5326 13.8462 21.6064 13.8715 21.6592 13.9209L21.7041 13.9785L21.7051 13.9795C21.8086 14.1722 21.9013 14.3764 21.9746 14.5879L22.041 14.8018V14.8027C22.0639 14.8944 22.0427 15.0041 21.9551 15.0684C21.9048 15.1086 21.8695 15.1363 21.833 15.1729C21.6078 15.3985 21.4863 15.6898 21.4863 15.999C21.4864 16.3087 21.6082 16.6082 21.832 16.8232L21.8379 16.8291L21.7979 16.8594L21.8379 16.8301C21.8484 16.844 21.8639 16.8578 21.8848 16.874C21.9023 16.8877 21.9332 16.9094 21.9561 16.9277L21.9551 16.9287C22.0428 16.9929 22.0638 17.1027 22.041 17.1943V17.1953C21.9617 17.4833 21.8431 17.7616 21.7051 18.0186L21.7041 18.0195C21.655 18.1053 21.557 18.1539 21.459 18.1416H21.457C21.4033 18.1327 21.349 18.1328 21.2998 18.1328C20.6534 18.1328 20.1289 18.6489 20.1289 19.2959L20.1387 19.4551V19.4561C20.1508 19.5542 20.1023 19.652 20.0166 19.7012H20.0156C19.7583 19.84 19.4816 19.9493 19.1963 20.0381L19.1953 20.0371C19.1667 20.0491 19.1398 20.0498 19.123 20.0498C19.0482 20.0498 18.9755 20.0128 18.9277 19.9531C18.8875 19.9027 18.8598 19.8667 18.8232 19.8301C18.6083 19.6148 18.3092 19.4922 18 19.4922C17.6914 19.4922 17.4012 19.6145 17.1758 19.8311C17.1494 19.8577 17.1121 19.9016 17.0732 19.9502L17.0742 19.9512C17.0104 20.0405 16.8988 20.0621 16.8066 20.0391L16.8057 20.0381C16.5182 19.9586 16.2408 19.8395 15.9844 19.7012H15.9834C15.8977 19.652 15.8492 19.5542 15.8613 19.4561V19.4541C15.8703 19.4002 15.8711 19.3452 15.8711 19.2959C15.8711 18.6584 15.3463 18.1328 14.7002 18.1328L14.541 18.1416C14.443 18.1539 14.345 18.1053 14.2959 18.0195L14.2949 18.0186C14.1564 17.7607 14.0475 17.4832 13.959 17.1973V17.1943C13.9362 17.1029 13.9568 16.993 14.0439 16.9287V16.9277C14.0942 16.8874 14.1305 16.8608 14.167 16.8242C14.6261 16.3642 14.6252 15.6236 14.167 15.1738V15.1729C14.138 15.1438 14.1019 15.1074 14.0479 15.0713H14.0469C13.9575 15.0073 13.9359 14.8951 13.959 14.8027V14.8018C14.0382 14.5138 14.1569 14.2364 14.2949 13.9795L14.2959 13.9785C14.3449 13.8925 14.4428 13.8432 14.541 13.8555H14.543C14.5967 13.8644 14.651 13.8652 14.7002 13.8652C15.3465 13.8652 15.8709 13.349 15.8711 12.7021C15.8711 12.6537 15.8705 12.6075 15.8613 12.543V12.542C15.8491 12.4439 15.8978 12.3461 15.9834 12.2969L15.9844 12.2959C16.2417 12.157 16.5184 12.0477 16.8037 11.959H16.8066ZM19.1582 12.4922C18.8462 12.8049 18.4331 12.9766 17.9902 12.9766C17.5474 12.9766 17.1343 12.8049 16.8223 12.4922L16.7861 12.4561C16.6335 12.5083 16.4888 12.5685 16.3516 12.6357V12.6924C16.3514 13.6004 15.6062 14.3467 14.6904 14.3467H14.6348C14.5674 14.4922 14.5083 14.6378 14.4561 14.7832L14.4922 14.8193C15.1357 15.4746 15.1355 16.5233 14.4912 17.1689L14.4551 17.2041C14.5074 17.3578 14.5673 17.5035 14.6348 17.6416H14.6904C15.6061 17.6416 16.3516 18.3777 16.3516 19.2959V19.3516C16.4964 19.4189 16.6414 19.478 16.7861 19.5303L16.8223 19.4951C17.1343 19.1824 17.5474 19.0107 17.9902 19.0107C18.4331 19.0107 18.8462 19.1824 19.1582 19.4951L19.1934 19.5303C19.3464 19.4779 19.4914 19.418 19.6289 19.3506V19.2959C19.6289 18.3877 20.3741 17.6416 21.29 17.6416H21.3457C21.4133 17.5031 21.472 17.3561 21.5244 17.1943L21.4893 17.1592C21.1773 16.8466 21.0059 16.4328 21.0059 15.9893C21.0059 15.5456 21.1772 15.131 21.4893 14.8184L21.5244 14.7822C21.4723 14.6293 21.4128 14.4842 21.3457 14.3467H21.29C20.3745 14.3467 19.6291 13.6104 19.6289 12.6924V12.6357C19.4837 12.5682 19.3385 12.5084 19.1934 12.4561L19.1582 12.4922ZM18 13.6201C19.3066 13.6201 20.373 14.6899 20.373 15.999C20.3729 17.308 19.3065 18.377 18 18.377C16.6935 18.377 15.6271 17.308 15.627 15.999C15.627 14.6899 16.6934 13.6201 18 13.6201ZM18 14.1113C16.9636 14.1113 16.1172 14.9602 16.1172 15.999C16.1174 17.0377 16.9637 17.8857 18 17.8857C19.0363 17.8857 19.8826 17.0377 19.8828 15.999C19.8828 14.9602 19.0364 14.1113 18 14.1113Z" fill="#F4F4F4" stroke="#F4F4F4" stroke-width="0.1"/>
</svg>
