<svg width="512" height="512" viewBox="0 0 512 512" fill="none" xmlns="http://www.w3.org/2000/svg">
<rect width="512" height="512" fill="#010101"/>
<path d="M394.141 127.743H311.621C310.27 127.755 308.967 128.253 307.953 129.147L267.626 164.528C266.851 162.914 266.075 161.3 265.174 159.728C258.673 148.13 249.042 138.594 237.381 132.208C225.371 125.458 210.741 122 193.889 122H193.155C176.387 122 161.715 125.396 149.663 132.208C138.013 138.609 128.386 148.142 121.87 159.728C115.449 171.364 112.142 184.461 112.27 197.75V330.616H150.166V197.75C150.101 192.128 151.162 186.55 153.288 181.345C155.413 176.14 158.559 171.414 162.54 167.444C166.522 163.474 171.258 160.342 176.469 158.232C181.68 156.122 187.261 155.077 192.883 155.159H194.266C199.886 155.083 205.464 156.132 210.673 158.244C215.881 160.356 220.615 163.488 224.595 167.457C228.575 171.425 231.722 176.15 233.849 181.352C235.976 186.554 237.042 192.13 236.983 197.75V330.616H274.899V207.475L348.93 142.373C349.929 141.494 351.161 140.922 352.477 140.725C353.794 140.528 355.139 140.716 356.351 141.264C357.564 141.813 358.592 142.7 359.313 143.819C360.034 144.937 360.417 146.24 360.416 147.571V330.741H399.716V133.318C399.722 132.592 399.583 131.872 399.309 131.199C399.034 130.527 398.628 129.915 398.116 129.401C397.603 128.886 396.993 128.478 396.322 128.201C395.65 127.924 394.93 127.782 394.204 127.785L394.141 127.743Z" fill="url(#paint0_linear_2736_8063)"/>
<path d="M115.012 356.523H136.301V362.467H121.924V370.024H133.721V375.692H121.924V388.779H115.012V356.523Z" fill="url(#paint1_linear_2736_8063)"/>
<path d="M167.524 381.083C166.142 383.572 164.252 385.553 161.856 386.936C159.414 388.364 156.649 389.055 153.562 389.055C150.428 389.055 147.664 388.364 145.267 386.936C142.825 385.553 140.936 383.572 139.6 381.083C138.217 378.595 137.572 375.784 137.572 372.651C137.572 369.563 138.217 366.753 139.6 364.264C140.936 361.776 142.825 359.794 145.267 358.366C147.664 356.984 150.428 356.246 153.562 356.246C156.649 356.246 159.414 356.984 161.856 358.366C164.252 359.794 166.142 361.776 167.524 364.264C168.86 366.753 169.552 369.563 169.552 372.651C169.552 375.784 168.86 378.595 167.524 381.083ZM145.728 378.088C146.466 379.701 147.479 380.945 148.862 381.867C150.198 382.788 151.765 383.203 153.562 383.203C155.313 383.203 156.834 382.788 158.216 381.867C159.552 380.945 160.612 379.701 161.349 378.088C162.087 376.521 162.455 374.678 162.455 372.651C162.455 370.623 162.087 368.826 161.349 367.213C160.612 365.647 159.552 364.402 158.216 363.481C156.834 362.559 155.313 362.098 153.562 362.098C151.765 362.098 150.198 362.559 148.862 363.481C147.479 364.402 146.466 365.647 145.728 367.213C144.991 368.826 144.622 370.623 144.622 372.651C144.622 374.678 144.991 376.521 145.728 378.088Z" fill="url(#paint2_linear_2736_8063)"/>
<path d="M180.419 356.523V375.231C180.419 377.858 180.926 379.839 181.94 381.129C182.953 382.466 184.52 383.111 186.732 383.111C188.898 383.111 190.51 382.466 191.524 381.129C192.538 379.839 193.091 377.858 193.091 375.231V356.523H200.003V374.863C200.003 379.471 198.851 383.019 196.593 385.415C194.335 387.857 191.063 389.055 186.732 389.055C182.4 389.055 179.083 387.857 176.871 385.415C174.613 383.019 173.507 379.471 173.507 374.863V356.523H180.419Z" fill="url(#paint3_linear_2736_8063)"/>
<path d="M205.282 388.779V356.523H211.549L225.235 376.844V356.523H232.055V388.779H225.742L212.056 368.457V388.779H205.282Z" fill="url(#paint4_linear_2736_8063)"/>
<path d="M237.547 356.523H248.745C251.97 356.523 254.781 357.214 257.27 358.596C259.758 359.979 261.647 361.868 262.984 364.31C264.32 366.753 265.011 369.517 265.011 372.651C265.011 375.784 264.32 378.595 262.984 381.037C261.647 383.48 259.758 385.369 257.27 386.751C254.781 388.134 251.97 388.779 248.745 388.779H237.547V356.523ZM248.745 383.019C251.648 383.019 253.906 382.097 255.519 380.208C257.131 378.319 257.961 375.784 257.961 372.651C257.961 369.517 257.131 367.029 255.519 365.14C253.906 363.25 251.648 362.283 248.745 362.283H244.459V383.019H248.745Z" fill="url(#paint5_linear_2736_8063)"/>
<path d="M265.297 388.779L277.093 356.523H285.388L297.092 388.779H289.673L287.185 381.729H274.928L272.439 388.779H265.297ZM276.771 376.153H285.296L281.01 363.896L276.771 376.153Z" fill="url(#paint6_linear_2736_8063)"/>
<path d="M293.711 356.523H319.24V362.467H309.931V388.779H303.019V362.467H293.711V356.523Z" fill="url(#paint7_linear_2736_8063)"/>
<path d="M323.002 356.523H329.914V388.779H323.002V356.523Z" fill="url(#paint8_linear_2736_8063)"/>
<path d="M364.039 381.083C362.657 383.572 360.767 385.553 358.371 386.936C355.929 388.364 353.164 389.055 350.077 389.055C346.943 389.055 344.179 388.364 341.782 386.936C339.34 385.553 337.451 383.572 336.115 381.083C334.732 378.595 334.087 375.784 334.087 372.651C334.087 369.563 334.732 366.753 336.115 364.264C337.451 361.776 339.34 359.794 341.782 358.366C344.179 356.984 346.943 356.246 350.077 356.246C353.164 356.246 355.929 356.984 358.371 358.366C360.767 359.794 362.657 361.776 364.039 364.264C365.375 366.753 366.067 369.563 366.067 372.651C366.067 375.784 365.375 378.595 364.039 381.083ZM342.243 378.088C342.981 379.701 343.994 380.945 345.377 381.867C346.713 382.788 348.28 383.203 350.077 383.203C351.828 383.203 353.349 382.788 354.731 381.867C356.067 380.945 357.127 379.701 357.864 378.088C358.602 376.521 358.97 374.678 358.97 372.651C358.97 370.623 358.602 368.826 357.864 367.213C357.127 365.647 356.067 364.402 354.731 363.481C353.349 362.559 351.828 362.098 350.077 362.098C348.28 362.098 346.713 362.559 345.377 363.481C343.994 364.402 342.981 365.647 342.243 367.213C341.506 368.826 341.137 370.623 341.137 372.651C341.137 374.678 341.506 376.521 342.243 378.088Z" fill="url(#paint9_linear_2736_8063)"/>
<path d="M370.252 388.779V356.523H376.519L390.205 376.844V356.523H397.025V388.779H390.712L377.026 368.457V388.779H370.252Z" fill="url(#paint10_linear_2736_8063)"/>
<defs>
<linearGradient id="paint0_linear_2736_8063" x1="129.5" y1="122" x2="400" y2="397" gradientUnits="userSpaceOnUse">
<stop stop-color="#BBB8FF"/>
<stop offset="0.5" stop-color="#5F58FF"/>
<stop offset="1" stop-color="#423DC3"/>
</linearGradient>
<linearGradient id="paint1_linear_2736_8063" x1="129.5" y1="122" x2="400" y2="397" gradientUnits="userSpaceOnUse">
<stop stop-color="#BBB8FF"/>
<stop offset="0.5" stop-color="#5F58FF"/>
<stop offset="1" stop-color="#423DC3"/>
</linearGradient>
<linearGradient id="paint2_linear_2736_8063" x1="129.5" y1="122" x2="400" y2="397" gradientUnits="userSpaceOnUse">
<stop stop-color="#BBB8FF"/>
<stop offset="0.5" stop-color="#5F58FF"/>
<stop offset="1" stop-color="#423DC3"/>
</linearGradient>
<linearGradient id="paint3_linear_2736_8063" x1="129.5" y1="122" x2="400" y2="397" gradientUnits="userSpaceOnUse">
<stop stop-color="#BBB8FF"/>
<stop offset="0.5" stop-color="#5F58FF"/>
<stop offset="1" stop-color="#423DC3"/>
</linearGradient>
<linearGradient id="paint4_linear_2736_8063" x1="129.5" y1="122" x2="400" y2="397" gradientUnits="userSpaceOnUse">
<stop stop-color="#BBB8FF"/>
<stop offset="0.5" stop-color="#5F58FF"/>
<stop offset="1" stop-color="#423DC3"/>
</linearGradient>
<linearGradient id="paint5_linear_2736_8063" x1="129.5" y1="122" x2="400" y2="397" gradientUnits="userSpaceOnUse">
<stop stop-color="#BBB8FF"/>
<stop offset="0.5" stop-color="#5F58FF"/>
<stop offset="1" stop-color="#423DC3"/>
</linearGradient>
<linearGradient id="paint6_linear_2736_8063" x1="129.5" y1="122" x2="400" y2="397" gradientUnits="userSpaceOnUse">
<stop stop-color="#BBB8FF"/>
<stop offset="0.5" stop-color="#5F58FF"/>
<stop offset="1" stop-color="#423DC3"/>
</linearGradient>
<linearGradient id="paint7_linear_2736_8063" x1="129.5" y1="122" x2="400" y2="397" gradientUnits="userSpaceOnUse">
<stop stop-color="#BBB8FF"/>
<stop offset="0.5" stop-color="#5F58FF"/>
<stop offset="1" stop-color="#423DC3"/>
</linearGradient>
<linearGradient id="paint8_linear_2736_8063" x1="129.5" y1="122" x2="400" y2="397" gradientUnits="userSpaceOnUse">
<stop stop-color="#BBB8FF"/>
<stop offset="0.5" stop-color="#5F58FF"/>
<stop offset="1" stop-color="#423DC3"/>
</linearGradient>
<linearGradient id="paint9_linear_2736_8063" x1="129.5" y1="122" x2="400" y2="397" gradientUnits="userSpaceOnUse">
<stop stop-color="#BBB8FF"/>
<stop offset="0.5" stop-color="#5F58FF"/>
<stop offset="1" stop-color="#423DC3"/>
</linearGradient>
<linearGradient id="paint10_linear_2736_8063" x1="129.5" y1="122" x2="400" y2="397" gradientUnits="userSpaceOnUse">
<stop stop-color="#BBB8FF"/>
<stop offset="0.5" stop-color="#5F58FF"/>
<stop offset="1" stop-color="#423DC3"/>
</linearGradient>
</defs>
</svg>
